<svg width="512" height="512" viewBox="0 0 512 512" fill="none" xmlns="http://www.w3.org/2000/svg">
  <defs>
    <linearGradient id="hearlyGlow" x1="96" y1="176" x2="416" y2="336" gradientUnits="userSpaceOnUse">
      <stop offset="0" stop-color="#79FF80"/>
      <stop offset="1" stop-color="#14E9FF"/>
    </linearGradient>
    <radialGradient id="panelBg" cx="0" cy="0" r="1" gradientUnits="userSpaceOnUse" gradientTransform="translate(256 256) rotate(90) scale(256)">
      <stop offset="0" stop-color="#0C111A"/>
      <stop offset="1" stop-color="#04070D"/>
    </radialGradient>
    <filter id="softGlow" x="42" y="42" width="428" height="428" filterUnits="userSpaceOnUse" color-interpolation-filters="sRGB">
      <feGaussianBlur stdDeviation="10" result="blur"/>
      <feColorMatrix in="blur" type="matrix" values="1 0 0 0 0  0 1 0 0 0.9  0 0 1 0 0.95  0 0 0 0.6 0"/>
    </filter>
    <filter id="waveGlow" x="62" y="84" width="388" height="344" filterUnits="userSpaceOnUse" color-interpolation-filters="sRGB">
      <feGaussianBlur stdDeviation="12" result="blur"/>
      <feColorMatrix in="blur" type="matrix" values="1 0 0 0 0  0 1 0 0 0.95  0 0 1 0 1  0 0 0 0.55 0"/>
    </filter>
    <filter id="letterShadow" x="186" y="162" width="140" height="188" filterUnits="userSpaceOnUse" color-interpolation-filters="sRGB">
      <feDropShadow dx="0" dy="6" stdDeviation="12" flood-color="#000000" flood-opacity="0.32"/>
    </filter>
  </defs>

  <rect x="20" y="20" width="472" height="472" rx="92" fill="url(#panelBg)"/>
  <rect x="20" y="20" width="472" height="472" rx="92" stroke="#0B1120" stroke-width="4"/>

  <g filter="url(#waveGlow)" opacity="0.9">
    <path d="M146 181C174 146 213 126 256 126C299 126 338 146 366 181" stroke="url(#hearlyGlow)" stroke-width="18" stroke-linecap="round"/>
    <path d="M146 331C174 366 213 386 256 386C299 386 338 366 366 331" stroke="url(#hearlyGlow)" stroke-width="18" stroke-linecap="round"/>
  </g>

  <g filter="url(#softGlow)" opacity="0.45">
    <path d="M146 181C174 146 213 126 256 126C299 126 338 146 366 181" stroke="url(#hearlyGlow)" stroke-width="18" stroke-linecap="round"/>
    <path d="M146 331C174 366 213 386 256 386C299 386 338 366 366 331" stroke="url(#hearlyGlow)" stroke-width="18" stroke-linecap="round"/>
    <rect x="98" y="234" width="16" height="44" rx="8" fill="url(#hearlyGlow)"/>
    <rect x="128" y="212" width="16" height="88" rx="8" fill="url(#hearlyGlow)"/>
    <rect x="158" y="188" width="16" height="136" rx="8" fill="url(#hearlyGlow)"/>
    <rect x="188" y="226" width="16" height="60" rx="8" fill="url(#hearlyGlow)"/>
    <rect x="308" y="226" width="16" height="60" rx="8" fill="url(#hearlyGlow)"/>
    <rect x="338" y="188" width="16" height="136" rx="8" fill="url(#hearlyGlow)"/>
    <rect x="368" y="212" width="16" height="88" rx="8" fill="url(#hearlyGlow)"/>
    <rect x="398" y="234" width="16" height="44" rx="8" fill="url(#hearlyGlow)"/>
  </g>

  <g>
    <path d="M146 181C174 146 213 126 256 126C299 126 338 146 366 181" stroke="url(#hearlyGlow)" stroke-width="18" stroke-linecap="round"/>
    <path d="M146 331C174 366 213 386 256 386C299 386 338 366 366 331" stroke="url(#hearlyGlow)" stroke-width="18" stroke-linecap="round"/>

    <rect x="98" y="234" width="16" height="44" rx="8" fill="url(#hearlyGlow)"/>
    <rect x="128" y="212" width="16" height="88" rx="8" fill="url(#hearlyGlow)"/>
    <rect x="158" y="188" width="16" height="136" rx="8" fill="url(#hearlyGlow)"/>
    <rect x="188" y="226" width="16" height="60" rx="8" fill="url(#hearlyGlow)"/>

    <rect x="308" y="226" width="16" height="60" rx="8" fill="url(#hearlyGlow)"/>
    <rect x="338" y="188" width="16" height="136" rx="8" fill="url(#hearlyGlow)"/>
    <rect x="368" y="212" width="16" height="88" rx="8" fill="url(#hearlyGlow)"/>
    <rect x="398" y="234" width="16" height="44" rx="8" fill="url(#hearlyGlow)"/>
  </g>

  <g filter="url(#letterShadow)">
    <path d="M222 190C222 179.507 230.507 171 241 171H247C257.493 171 266 179.507 266 190V233H282V190C282 179.507 290.507 171 301 171H307C317.493 171 326 179.507 326 190V322C326 332.493 317.493 341 307 341H301C290.507 341 282 332.493 282 322V279H266V322C266 332.493 257.493 341 247 341H241C230.507 341 222 332.493 222 322V190Z" fill="#F7F8FA"/>
  </g>
</svg>
